# xmcd
#
# Track frame offsets:
#	150
#	18485
#	27712
#	40112
#	54730
#	57900
#	74967
#	99804
#
# Disc length: 1509 seconds
#
# Revision: 1
# Processed by: cddbd v1.5.1PL0 Copyright (c) Steve Scherf et al.
# Submitted via: CDex 1.50Beta5
#
DISCID=7005e308
DTITLE=NiCRUSH - HUNGRY!?
DYEAR=1900
DGENRE=Rock
TTITLE0=MY WAY
TTITLE1=NOTHING
TTITLE2=BRAVE
TTITLE3=HAPPYTIME!!
TTITLE4=hungry
TTITLE5=PROMISE
TTITLE6=想い
TTITLE7=THATS DAY
EXTD=
EXTT0=
EXTT1=
EXTT2=
EXTT3=
EXTT4=
EXTT5=
EXTT6=
EXTT7=
PLAYORDER=
